<svg width="300" height="108" viewBox="0 0 300 108" fill="none" xmlns="http://www.w3.org/2000/svg">
<path d="M94.5878 23.9995H17.0776V93.8433H94.5878V23.9995Z" fill="#FD2800"/>
<path d="M41.9463 41.2498V78.1873H32.4687V51.1872L25.9938 52.781L23.7417 44.8122L33.7824 41.2498H41.9463Z" fill="white"/>
<path d="M44.8555 71.3435L57.1483 58.406C59.2127 56.156 60.7141 54.4685 60.7141 52.6873C60.7141 50.906 59.5881 49.5936 57.4298 49.5936C55.0838 49.5936 53.4886 51.0935 52.4564 53.4373L44.2925 48.9373C46.7323 43.1248 51.8934 40.406 57.336 40.406C63.9985 40.406 70.1917 44.6248 70.1917 52.1248C70.1917 56.8123 67.6581 60.281 64.28 63.8435L59.2127 69.0935H70.7548V78.1873H44.8555V71.3435Z" fill="white"/>
<path d="M80.9829 55.687C84.7143 55.687 87.7392 52.6649 87.7392 48.937C87.7392 45.2091 84.7143 42.187 80.9829 42.187C77.2514 42.187 74.2266 45.2091 74.2266 48.937C74.2266 52.6649 77.2514 55.687 80.9829 55.687Z" stroke="white" stroke-width="1.2295" stroke-miterlimit="10"/>
<path d="M101.815 49.3117C101.815 47.0617 103.504 45.1868 105.944 45.1868C107.351 45.1868 108.665 45.9368 109.322 47.0618L108.196 47.718C107.821 46.968 106.882 46.4055 105.944 46.4055C104.255 46.4055 103.129 47.6243 103.129 49.218C103.129 50.8118 104.255 52.0305 105.944 52.0305C106.976 52.0305 107.821 51.5617 108.196 50.718L109.322 51.3742C108.665 52.4992 107.351 53.2492 105.944 53.2492C103.504 53.343 101.815 51.5617 101.815 49.3117Z" fill="#006FE3"/>
<path d="M109.979 49.3117C109.979 47.0617 111.762 45.1868 114.108 45.1868C116.36 45.1868 118.237 46.968 118.237 49.3117C118.237 51.5617 116.454 53.4368 114.108 53.4368C111.762 53.343 109.979 51.5617 109.979 49.3117ZM116.829 49.3117C116.829 47.718 115.609 46.4992 114.014 46.4992C112.419 46.4992 111.199 47.718 111.199 49.3117C111.199 50.9055 112.419 52.1242 114.014 52.1242C115.609 52.1242 116.829 50.9055 116.829 49.3117Z" fill="#006FE3"/>
<path d="M125.274 45.3743V53.2492H124.242L120.489 47.9055V53.2492H119.175V45.3743H120.207L123.961 50.718V45.3743H125.274Z" fill="#006FE3"/>
<path d="M128.183 46.593V48.7493H131.374V49.968H128.183V53.1555H126.87V45.2805H131.468V46.4993H128.183V46.593Z" fill="#006FE3"/>
<path d="M137.473 52.0305V53.2492H132.688V45.3743H137.379V46.593H133.907V48.6555H137.098V49.8743H133.907V52.0305H137.473Z" fill="#006FE3"/>
<path d="M141.508 50.343H140.007V53.2492H138.693V45.3743H141.884C143.291 45.3743 144.418 46.4992 144.418 47.9055C144.418 48.9367 143.761 49.7805 142.822 50.1555L144.605 53.2492H143.198L141.508 50.343ZM139.913 49.218H141.79C142.447 49.218 143.01 48.6555 143.01 47.9055C143.01 47.1555 142.447 46.593 141.79 46.593H139.913V49.218Z" fill="#006FE3"/>
<path d="M150.329 52.0305V53.2492H145.543V45.3743H150.235V46.593H146.763V48.6555H149.954V49.8743H146.763V52.0305H150.329Z" fill="#006FE3"/>
<path d="M157.555 45.3743V53.2492H156.522L152.769 47.9055V53.2492H151.455V45.3743H152.487L156.241 50.718V45.3743H157.555Z" fill="#006FE3"/>
<path d="M158.681 49.3117C158.681 47.0617 160.37 45.1868 162.81 45.1868C164.217 45.1868 165.531 45.9368 166.188 47.0618L165.062 47.718C164.686 46.968 163.748 46.4055 162.81 46.4055C161.12 46.4055 159.994 47.6243 159.994 49.218C159.994 50.8118 161.12 52.0305 162.81 52.0305C163.842 52.0305 164.686 51.5617 165.062 50.718L166.188 51.3742C165.531 52.4992 164.217 53.2492 162.81 53.2492C160.464 53.343 158.681 51.5617 158.681 49.3117Z" fill="#006FE3"/>
<path d="M168.533 45.3743V53.2492H167.22V45.3743H168.533Z" fill="#006FE3"/>
<path d="M174.727 51.6555H171.349L170.786 53.2492H169.378L172.194 45.3743H173.789L176.604 53.2492H175.196L174.727 51.6555ZM174.258 50.4367L173.038 46.8742L171.818 50.4367H174.258Z" fill="#006FE3"/>
<path d="M181.577 45.3743V53.2492H180.357V45.3743H181.577Z" fill="#006FE3"/>
<path d="M189.178 45.3743V53.2492H188.146L184.392 47.9055V53.2492H183.172V45.3743H184.205L187.958 50.718V45.3743H189.178Z" fill="#006FE3"/>
<path d="M195.934 46.593H193.682V53.2492H192.368V46.593H190.116V45.3743H195.84V46.593H195.934Z" fill="#006FE3"/>
<path d="M201.658 52.0305V53.2492H196.873V45.3743H201.564V46.593H198.186V48.6555H201.377V49.8743H198.186V52.0305H201.658Z" fill="#006FE3"/>
<path d="M205.6 50.343H204.098V53.2492H202.785V45.3743H205.975C207.383 45.3743 208.509 46.4992 208.509 47.9055C208.509 48.9367 207.852 49.7805 206.913 50.1555L208.696 53.2492H207.289L205.6 50.343ZM204.098 49.218H205.975C206.632 49.218 207.195 48.6555 207.195 47.9055C207.195 47.1555 206.632 46.593 205.975 46.593H204.098V49.218Z" fill="#006FE3"/>
<path d="M215.734 45.3743V53.2492H214.702L210.948 47.9055V53.2492H209.635V45.3743H210.667L214.42 50.718V45.3743H215.734Z" fill="#006FE3"/>
<path d="M221.834 51.6555H218.455L217.892 53.2492H216.485L219.3 45.3743H220.895L223.71 53.2492H222.303L221.834 51.6555ZM221.458 50.4367L220.238 46.8742L219.018 50.4367H221.458Z" fill="#006FE3"/>
<path d="M223.992 49.3117C223.992 47.0617 225.681 45.1868 228.121 45.1868C229.529 45.1868 230.842 45.9368 231.499 47.0618L230.373 47.718C229.998 46.968 229.059 46.4055 228.121 46.4055C226.432 46.4055 225.306 47.6243 225.306 49.218C225.306 50.8118 226.432 52.0305 228.121 52.0305C229.153 52.0305 229.998 51.5617 230.373 50.718L231.499 51.3742C230.842 52.4992 229.529 53.2492 228.121 53.2492C225.681 53.343 223.992 51.5617 223.992 49.3117Z" fill="#006FE3"/>
<path d="M233.845 45.3743V53.2492H232.531V45.3743H233.845Z" fill="#006FE3"/>
<path d="M235.065 49.3117C235.065 47.0617 236.848 45.1868 239.194 45.1868C241.446 45.1868 243.323 46.968 243.323 49.3117C243.323 51.5617 241.54 53.4368 239.194 53.4368C236.848 53.343 235.065 51.5617 235.065 49.3117ZM241.915 49.3117C241.915 47.718 240.695 46.4992 239.1 46.4992C237.505 46.4992 236.285 47.718 236.285 49.3117C236.285 50.9055 237.505 52.1242 239.1 52.1242C240.695 52.1242 241.915 50.9055 241.915 49.3117Z" fill="#006FE3"/>
<path d="M250.36 45.3743V53.2492H249.328L245.574 47.9055V53.2492H244.261V45.3743H245.293L249.047 50.718V45.3743H250.36Z" fill="#006FE3"/>
<path d="M256.554 51.6555H253.176L252.613 53.2492H251.205L254.02 45.3743H255.615L258.431 53.2492H257.023L256.554 51.6555ZM256.085 50.4367L254.865 46.8742L253.645 50.4367H256.085Z" fill="#006FE3"/>
<path d="M263.779 52.0305V53.2492H259.275V45.3743H260.589V52.0305H263.779Z" fill="#006FE3"/>
<path d="M274.477 49.3117C274.477 51.468 272.881 53.2492 270.723 53.2492H267.626V45.3743H270.723C272.881 45.3743 274.477 47.0617 274.477 49.3117ZM273.163 49.3117C273.163 47.718 272.131 46.593 270.629 46.593H268.846V52.0305H270.629C272.225 52.0305 273.163 50.9055 273.163 49.3117Z" fill="#006FE3"/>
<path d="M280.388 52.0305V53.2492H275.603V45.3743H280.294V46.593H276.822V48.6555H280.013V49.8743H276.822V52.0305H280.388Z" fill="#006FE3"/>
<path d="M101.627 75.5618C101.627 65.4368 109.322 57.2805 120.114 57.2805C126.588 57.2805 132.312 60.6556 135.315 65.8118L131.28 68.1556C129.31 64.3118 124.993 61.7806 120.114 61.7806C111.856 61.7806 106.319 67.7805 106.319 75.5618C106.319 83.2493 111.856 89.2493 120.114 89.2493C124.993 89.2493 129.216 86.7181 131.28 82.8743L135.315 85.2181C132.406 90.3743 126.682 93.843 120.114 93.843C109.228 93.7493 101.627 85.593 101.627 75.5618Z" fill="#006FE3"/>
<path d="M145.262 57.9368V93.1868H140.57V57.9368H145.262Z" fill="#006FE3"/>
<path d="M152.3 81.2805V57.843H156.992V81.093C156.992 85.968 159.901 89.1555 165.531 89.1555C171.161 89.1555 174.07 85.968 174.07 81.093V57.843H178.668V81.2805C178.668 88.968 173.132 93.7492 165.437 93.7492C157.836 93.7492 152.3 88.968 152.3 81.2805Z" fill="#006FE3"/>
<path d="M216.391 75.5618C216.391 85.3118 209.353 93.1868 199.688 93.1868H185.894V57.9368H199.688C209.447 57.9368 216.391 65.718 216.391 75.5618ZM211.887 75.5618C211.887 68.1555 206.913 62.343 199.688 62.343H190.585V88.6868H199.688C206.913 88.6868 211.887 82.968 211.887 75.5618Z" fill="#006FE3"/>
<path d="M241.164 85.218H225.306L222.397 93.093H217.423L230.561 57.843H235.816L248.953 93.093H243.979L241.164 85.218ZM239.569 80.8118L233.188 63.468L226.901 80.8118H239.569Z" fill="#006FE3"/>
<path d="M283.673 75.5618C283.673 85.3118 276.635 93.1868 266.97 93.1868H253.176V57.9368H266.97C276.729 57.9368 283.673 65.718 283.673 75.5618ZM279.263 75.5618C279.263 68.1555 274.289 62.343 267.064 62.343H257.962V88.6868H267.064C274.289 88.6868 279.263 82.968 279.263 75.5618Z" fill="#006FE3"/>
<path d="M115.704 34.9685C115.704 38.4372 112.982 40.2185 109.886 40.2185C107.352 40.2185 105.194 39.0935 104.255 36.7498L106.977 35.156C107.352 36.3748 108.29 37.1247 109.886 37.1247C111.575 37.1247 112.513 36.281 112.513 34.9685C112.513 33.656 111.575 32.8123 109.979 32.8123H105.1L105.757 23.906H114.953V26.906H108.666L108.478 29.8122H110.167C113.17 29.7185 115.704 31.5935 115.704 34.9685Z" fill="#006FE3"/>
<path d="M133.158 33.656V39.9372H129.967V33.656L124.431 23.8123H128.09L131.656 30.4685L135.222 23.8123H138.882L133.158 33.656Z" fill="#006FE3"/>
<path d="M158.963 34.6872C158.963 37.9685 156.523 40.3122 153.051 40.3122C149.579 40.3122 147.14 37.9685 147.14 34.6872C147.14 33.4685 147.515 32.3435 148.078 31.406L153.145 23.8123H156.805L153.239 29.0622C156.617 29.156 158.963 31.4997 158.963 34.6872ZM155.773 34.6872C155.773 33.0935 154.553 32.0622 153.051 32.0622C151.55 32.0622 150.33 32.9997 150.33 34.6872C150.33 36.3747 151.55 37.3122 153.051 37.3122C154.553 37.3122 155.773 36.281 155.773 34.6872Z" fill="#006FE3"/>
<path d="M190.023 31.8748C190.023 36.3748 186.645 39.9372 182.235 39.9372H175.76V23.906H182.235C186.645 23.906 190.023 27.3748 190.023 31.8748ZM186.927 31.8748C186.927 28.8748 184.956 26.906 182.141 26.906H178.856V36.9373H182.141C185.05 36.9373 186.927 34.8748 186.927 31.8748Z" fill="#006FE3"/>
<path d="M203.442 36.9373V39.9372H193.401V23.906H203.348V26.906H196.592V30.281H202.785V33.281H196.592V36.8435H203.442V36.9373Z" fill="#006FE3"/>
<path d="M212.826 37.2185L215.547 35.6247C216.017 36.656 216.767 37.1247 218.175 37.1247C219.958 37.1247 220.709 36.1872 220.709 34.8747V23.8123H223.899V34.8747C223.899 38.3435 221.365 40.2185 218.175 40.2185C215.735 40.3123 213.858 39.1872 212.826 37.2185Z" fill="#006FE3"/>
<path d="M227.652 34.6873V23.906H230.843V34.4997C230.843 36.0935 231.687 37.2185 233.846 37.2185C236.004 37.2185 236.848 36.0935 236.848 34.4997V23.906H240.039V34.6873C240.039 38.156 237.411 40.2185 233.846 40.2185C230.28 40.3123 227.652 38.156 227.652 34.6873Z" fill="#006FE3"/>
<path d="M253.458 36.9373V39.9372H244.074V23.906H247.265V36.9373H253.458Z" fill="#006FE3"/>
<path d="M259.463 23.906V39.9372H256.273V23.906H259.463Z" fill="#006FE3"/>
<path d="M262.842 31.8748C262.842 27.1873 266.595 23.531 271.287 23.531C275.979 23.531 279.733 27.1873 279.733 31.8748C279.733 36.5623 275.979 40.2185 271.287 40.2185C266.595 40.3123 262.842 36.5623 262.842 31.8748ZM276.542 31.8748C276.542 28.781 274.196 26.6248 271.287 26.6248C268.378 26.6248 266.032 28.781 266.032 31.8748C266.032 34.9685 268.378 37.1248 271.287 37.1248C274.196 37.1248 276.542 34.9685 276.542 31.8748Z" fill="#006FE3"/>
</svg>
