<svg width="160" height="50" viewBox="0 0 160 50" fill="none" xmlns="http://www.w3.org/2000/svg">
<g clip-path="url(#clip0_1635_9559)">
<path d="M119.541 27.8144C119.538 28.4501 119.408 29.0787 119.159 29.6636C118.911 30.2484 118.549 30.7778 118.094 31.221C117.64 31.6641 117.102 32.0121 116.511 32.2447C115.921 32.4772 115.291 32.5897 114.657 32.5756L112.571 32.5678L112.556 36.9489L109.378 36.9378L109.428 23L114.691 23.0189C115.325 23.0094 115.955 23.1266 116.543 23.3635C117.131 23.6004 117.667 23.9523 118.118 24.3988C118.57 24.8452 118.928 25.3773 119.172 25.9639C119.416 26.5505 119.541 27.1799 119.54 27.8156M116.364 27.8056C116.377 27.5755 116.343 27.3453 116.264 27.1288C116.186 26.9123 116.064 26.7141 115.907 26.546C115.75 26.378 115.56 26.2436 115.35 26.1511C115.139 26.0586 114.912 26.0098 114.682 26.0078L112.597 26L112.583 29.5844L114.669 29.5922C114.899 29.5919 115.126 29.5448 115.337 29.4538C115.549 29.3629 115.739 29.2299 115.898 29.063C116.056 28.8961 116.179 28.6987 116.259 28.4827C116.339 28.2668 116.375 28.0368 116.364 27.8067" fill="#006EDC"/>
<path d="M125.8 32.3666H124.29L124.275 36.9466L121.092 36.9222L121.142 22.9844L126.703 23.0044C127.33 23.0052 127.95 23.1302 128.528 23.372C129.106 23.6138 129.631 23.9677 130.072 24.4134C130.513 24.8591 130.863 25.3878 131.099 25.9692C131.336 26.5505 131.456 27.1731 131.452 27.801C131.434 28.6459 131.184 29.4694 130.73 30.181C130.275 30.8926 129.634 31.4647 128.876 31.8344L131.817 36.9622L128.401 36.9499L125.8 32.3666ZM124.306 29.5699L126.689 29.5777C127.127 29.528 127.532 29.3186 127.827 28.9893C128.121 28.66 128.285 28.2337 128.286 27.7914C128.288 27.3491 128.128 26.9217 127.836 26.5902C127.543 26.2587 127.14 26.0463 126.702 25.9933L124.319 25.9844L124.306 29.5699Z" fill="#006EDC"/>
<path d="M132.541 29.9495C132.561 28.2899 133.154 26.6885 134.219 25.4173C135.283 24.1461 136.753 23.2835 138.38 22.976C140.007 22.6685 141.69 22.9351 143.143 23.7305C144.596 24.5259 145.73 25.801 146.352 27.3393C146.973 28.8776 147.044 30.5841 146.553 32.1691C146.062 33.7541 145.039 35.1197 143.657 36.034C142.275 36.9484 140.62 37.355 138.974 37.1848C137.327 37.0147 135.789 36.2782 134.623 35.1006C133.955 34.4215 133.427 33.617 133.07 32.733C132.713 31.8491 132.533 30.9032 132.541 29.9495M143.823 29.9895C143.811 29.1893 143.563 28.4107 143.11 27.7512C142.658 27.0918 142.021 26.581 141.281 26.2829C140.54 25.9848 139.728 25.9128 138.946 26.0758C138.165 26.2388 137.448 26.6296 136.888 27.1992C136.327 27.7687 135.946 28.4917 135.794 29.2772C135.641 30.0628 135.724 30.876 136.031 31.6148C136.338 32.3535 136.856 32.985 137.519 33.4298C138.183 33.8746 138.963 34.113 139.761 34.1151C140.304 34.131 140.844 34.0346 141.348 33.8322C141.852 33.6297 142.308 33.3253 142.69 32.9381C143.071 32.5508 143.369 32.089 143.565 31.5814C143.761 31.0737 143.85 30.5311 143.827 29.9873" fill="#006EDC"/>
<path d="M14.0001 10.3308C13.9787 9.3721 14.152 8.41908 14.5097 7.52973C14.8674 6.64039 15.4018 5.83332 16.0806 5.15766C16.7593 4.482 17.5681 3.9519 18.4577 3.59962C19.3474 3.24734 20.2992 3.08026 21.2553 3.10854C22.4409 3.09495 23.6102 3.38638 24.6514 3.95498C25.6926 4.52358 26.571 5.35036 27.2026 6.35632L24.4562 7.93743C24.1223 7.389 23.6483 6.94003 23.0831 6.63702C22.518 6.33401 21.8823 6.188 21.242 6.2141C20.6952 6.18167 20.1479 6.26665 19.6365 6.46336C19.1252 6.66007 18.6616 6.96397 18.2769 7.35475C17.8921 7.74552 17.595 8.21415 17.4055 8.7293C17.2159 9.24444 17.1383 9.79423 17.1777 10.3419C17.1345 10.8894 17.2084 11.4398 17.3946 11.9564C17.5807 12.473 17.8747 12.9437 18.257 13.3371C18.6393 13.7306 19.101 14.0376 19.6112 14.2377C20.1214 14.4378 20.6683 14.5264 21.2154 14.4974C21.8554 14.5298 22.4924 14.3889 23.0594 14.0896C23.6265 13.7903 24.1028 13.3436 24.4384 12.7963L27.1738 14.3985C26.5385 15.403 25.6551 16.2259 24.6092 16.7873C23.5633 17.3488 22.3904 17.6297 21.2043 17.603C20.2481 17.6247 19.2975 17.451 18.4104 17.0926C17.5232 16.7341 16.7182 16.1984 16.0442 15.5181C15.3702 14.8377 14.8414 14.027 14.49 13.1352C14.1386 12.2434 13.9719 11.2892 14.0001 10.3308" fill="#006EDC"/>
<path d="M27.8829 10.3276C27.8879 8.89419 28.3169 7.49442 29.1154 6.30535C29.914 5.11628 31.0464 4.19132 32.3694 3.64743C33.6924 3.10354 35.1465 2.96515 36.5479 3.24977C37.9493 3.53438 39.2351 4.22921 40.2426 5.2464C41.2501 6.26358 41.9341 7.55744 42.2081 8.96434C42.4822 10.3712 42.3339 11.828 41.782 13.1504C41.2302 14.4728 40.2996 15.6015 39.1079 16.3937C37.9162 17.1859 36.5169 17.606 35.087 17.601C34.1376 17.5976 33.1982 17.4068 32.3223 17.0395C31.4464 16.6722 30.6513 16.1355 29.9823 15.4601C29.3134 14.7847 28.7836 13.9838 28.4234 13.1032C28.0632 12.2226 27.8795 11.2794 27.8829 10.3276M39.1624 10.3676C39.1768 9.82633 39.0831 9.28759 38.8869 8.78308C38.6906 8.27857 38.3958 7.81848 38.0196 7.42983C37.6435 7.04118 37.1937 6.73183 36.6966 6.51994C36.1995 6.30805 35.6652 6.19791 35.125 6.19598C34.5849 6.19406 34.0498 6.30039 33.5512 6.50873C33.0527 6.71707 32.6006 7.02321 32.2218 7.40916C31.8429 7.79512 31.5448 8.2531 31.345 8.7562C31.1452 9.2593 31.0477 9.79736 31.0582 10.3388C31.0438 10.8801 31.1375 11.4188 31.3337 11.9233C31.53 12.4278 31.8248 12.8879 32.201 13.2766C32.5771 13.6652 33.0269 13.9746 33.524 14.1865C34.0211 14.3984 34.5554 14.5085 35.0956 14.5104C35.6357 14.5124 36.1708 14.406 36.6694 14.1977C37.1679 13.9893 37.62 13.6832 37.9988 13.2972C38.3777 12.9113 38.6758 12.4533 38.8756 11.9502C39.0754 11.4471 39.1729 10.9091 39.1624 10.3676Z" fill="#006EDC"/>
<path d="M58.0066 17.3491L54.829 17.338L54.8578 9.23355L51.2424 15.1347H50.8844L47.309 9.20688L47.2801 17.3113L44.1025 17.3002L44.1524 3.36133L47.33 3.37244L51.0817 9.578L54.8778 3.39911L58.0554 3.41022L58.0066 17.3491Z" fill="#006EDC"/>
<path d="M70.551 8.19335C70.5473 8.82893 70.4175 9.45742 70.1691 10.0422C69.9207 10.627 69.5588 11.1564 69.1042 11.5995C68.6497 12.0426 68.1118 12.3906 67.5218 12.6233C66.9318 12.8559 66.3015 12.9685 65.6677 12.9545L63.5818 12.9467L63.5663 17.3278L60.3887 17.3167L60.4385 3.37891L65.702 3.3978C66.3359 3.38851 66.9654 3.50576 67.5537 3.74272C68.1419 3.97969 68.6773 4.33162 69.1286 4.77804C69.5799 5.22445 69.938 5.75642 70.1822 6.34296C70.4264 6.9295 70.5518 7.55888 70.551 8.19446M67.3734 8.18335C67.3861 7.95325 67.3522 7.72294 67.2736 7.50637C67.1949 7.2898 67.0733 7.09148 66.916 6.92341C66.7587 6.75534 66.5691 6.62101 66.3585 6.52857C66.1479 6.43612 65.9208 6.38747 65.6909 6.38557L63.605 6.3778L63.5918 9.96224L65.6776 9.97002C65.9075 9.96969 66.1348 9.92261 66.346 9.83165C66.5571 9.74069 66.7477 9.60772 66.9061 9.4408C67.0645 9.27389 67.1875 9.07648 67.2676 8.86054C67.3478 8.64459 67.3834 8.41459 67.3723 8.18446" fill="#006EDC"/>
<path d="M76.8091 12.7416H75.2996L75.284 17.3216L72.1064 17.3105L72.1541 3.36719L77.7157 3.38719C78.3421 3.38791 78.9622 3.51269 79.5404 3.75435C80.1186 3.99602 80.6435 4.34981 81.0849 4.79541C81.5263 5.24101 81.8755 5.76965 82.1125 6.35095C82.3495 6.93225 82.4697 7.55476 82.466 8.18274C82.4482 9.02762 82.1981 9.85117 81.7435 10.5628C81.2889 11.2744 80.6472 11.8465 79.8891 12.2161L82.8307 17.3439L79.4148 17.3316L76.8091 12.7416ZM75.3095 9.9483L77.6924 9.95719C77.915 9.94656 78.1332 9.89175 78.3345 9.79593C78.5358 9.70011 78.7161 9.5652 78.8649 9.39901C79.0138 9.23281 79.1283 9.03865 79.2018 8.82777C79.2752 8.61689 79.3062 8.39349 79.2929 8.17052C79.3077 7.94807 79.2785 7.72488 79.2068 7.51382C79.1352 7.30277 79.0225 7.10804 78.8753 6.94089C78.7282 6.77373 78.5495 6.63746 78.3495 6.53994C78.1495 6.44243 77.9322 6.3856 77.7102 6.37274L75.3273 6.36385L75.3095 9.9483Z" fill="#006EDC"/>
<path d="M83.5518 10.3276C83.5569 8.89419 83.9858 7.49442 84.7844 6.30535C85.583 5.11628 86.7154 4.19132 88.0383 3.64743C89.3613 3.10354 90.8154 2.96515 92.2168 3.24977C93.6183 3.53438 94.904 4.22921 95.9115 5.2464C96.9191 6.26358 97.6031 7.55744 97.8771 8.96434C98.1511 10.3712 98.0028 11.828 97.451 13.1504C96.8991 14.4728 95.9685 15.6015 94.7768 16.3937C93.5851 17.1859 92.1858 17.606 90.756 17.601C89.8066 17.5976 88.8671 17.4068 87.9912 17.0395C87.1154 16.6722 86.3202 16.1355 85.6513 15.4601C84.9823 14.7847 84.4526 13.9838 84.0924 13.1032C83.7321 12.2226 83.5484 11.2794 83.5518 10.3276M94.8335 10.3676C94.8479 9.82633 94.7543 9.28759 94.558 8.78308C94.3618 8.27857 94.0669 7.81848 93.6908 7.42983C93.3147 7.04118 92.8648 6.73183 92.3678 6.51994C91.8707 6.30805 91.3364 6.19791 90.7962 6.19598C90.2561 6.19406 89.721 6.30039 89.2224 6.50873C88.7238 6.71707 88.2718 7.02321 87.8929 7.40916C87.514 7.79512 87.2159 8.2531 87.0161 8.7562C86.8163 9.2593 86.7188 9.79736 86.7294 10.3388C86.715 10.8801 86.8087 11.4188 87.0049 11.9233C87.2011 12.4278 87.496 12.8879 87.8721 13.2766C88.2482 13.6652 88.6981 13.9746 89.1952 14.1865C89.6922 14.3984 90.2266 14.5085 90.7667 14.5104C91.3069 14.5124 91.8419 14.406 92.3405 14.1977C92.8391 13.9893 93.2911 13.6832 93.67 13.2972C94.0489 12.9113 94.347 12.4533 94.5468 11.9502C94.7466 11.4471 94.8441 10.9091 94.8335 10.3676" fill="#006EDC"/>
<path d="M113.673 17.3491L110.496 17.338L110.525 9.23355L106.909 15.1347H106.551L102.977 9.20688L102.948 17.3113L99.7705 17.3002L99.8193 3.36133L102.997 3.37244L106.749 9.578L110.545 3.39911L113.721 3.41022L113.673 17.3491Z" fill="#006EDC"/>
<path d="M116.112 3.38069L116.057 17.3184L119.234 17.3311L119.29 3.39342L116.112 3.38069Z" fill="#006EDC"/>
<path d="M120.735 14.1387L123.482 12.5509C123.692 13.1473 124.089 13.6592 124.615 14.0094C125.14 14.3597 125.765 14.5295 126.394 14.4931C127.904 14.4931 128.279 13.902 128.285 13.3642C128.285 12.5076 127.495 12.1665 125.411 11.5865C123.348 11.0031 121.326 9.9998 121.335 7.33203C121.351 6.7419 121.487 6.16127 121.734 5.62533C121.981 5.0894 122.334 4.60932 122.772 4.21421C123.209 3.8191 123.722 3.51718 124.28 3.32677C124.837 3.13635 125.427 3.06141 126.014 3.10647C127.077 3.07366 128.126 3.35656 129.029 3.9196C129.931 4.48265 130.648 5.3007 131.088 6.27092L128.402 7.83425C128.226 7.34438 127.9 6.92341 127.469 6.63263C127.038 6.34185 126.526 6.19645 126.008 6.21758C125.01 6.21758 124.516 6.7098 124.514 7.26758C124.514 7.90425 124.846 8.34425 127.01 9.00869C129.115 9.65314 131.474 10.3987 131.463 13.342C131.453 16.0298 129.303 17.6154 126.284 17.6042C123.364 17.5942 121.502 16.1931 120.735 14.1398" fill="#006EDC"/>
<path d="M132.367 10.3246C132.373 8.89117 132.802 7.49151 133.6 6.30259C134.399 5.11367 135.532 4.18888 136.855 3.64516C138.178 3.10144 139.632 2.96321 141.033 3.24795C142.434 3.53269 143.72 4.22761 144.727 5.24484C145.735 6.26207 146.419 7.55592 146.693 8.96279C146.967 10.3697 146.818 11.8264 146.266 13.1487C145.714 14.4711 144.784 15.5997 143.592 16.3918C142.4 17.184 141.001 17.6041 139.571 17.599C138.622 17.5957 137.682 17.4049 136.806 17.0375C135.93 16.67 135.135 16.1333 134.466 15.4578C133.797 14.7822 133.268 13.9812 132.908 13.1005C132.547 12.2197 132.364 11.2765 132.367 10.3246M143.648 10.3635C143.662 9.82216 143.569 9.28342 143.372 8.77891C143.176 8.2744 142.881 7.8143 142.505 7.42566C142.129 7.03701 141.679 6.72765 141.182 6.51576C140.685 6.30388 140.151 6.19373 139.611 6.19181C139.07 6.18988 138.535 6.29621 138.037 6.50455C137.538 6.71289 137.086 7.01903 136.707 7.40499C136.328 7.79094 136.03 8.24893 135.83 8.75202C135.631 9.25512 135.533 9.79318 135.544 10.3346C135.529 10.8759 135.623 11.4146 135.819 11.9192C136.015 12.4237 136.31 12.8838 136.686 13.2724C137.063 13.6611 137.512 13.9704 138.009 14.1823C138.507 14.3942 139.041 14.5043 139.581 14.5063C140.121 14.5082 140.656 14.4018 141.155 14.1935C141.653 13.9852 142.105 13.679 142.484 13.2931C142.863 12.9071 143.161 12.4491 143.361 11.946C143.561 11.4429 143.658 10.9049 143.648 10.3635" fill="#006EDC"/>
<path d="M87.6368 22.7773L80.2354 30.1973H96.8892V46.8929L104.291 39.4729V22.7773H87.6368Z" fill="#E74100"/>
</g>
<defs>
<clipPath id="clip0_1635_9559">
<rect width="133" height="44" fill="white" transform="translate(14 3)"/>
</clipPath>
</defs>
</svg>
