<?xml version="1.0" standalone="no"?>
<!DOCTYPE svg PUBLIC "-//W3C//DTD SVG 20010904//EN"
 "http://www.w3.org/TR/2001/REC-SVG-20010904/DTD/svg10.dtd">
<svg version="1.0" xmlns="http://www.w3.org/2000/svg"
 width="690.000000pt" height="113.000000pt" viewBox="0 0 690.000000 113.000000"
 preserveAspectRatio="xMidYMid meet">

<g transform="translate(0.000000,113.000000) scale(0.100000,-0.100000)"
fill="#000000" stroke="none">
<path d="M0 565 l0 -565 565 0 565 0 0 565 0 565 -565 0 -565 0 0 -565z m1110
0 l0 -545 -545 0 -545 0 0 545 0 545 545 0 545 0 0 -545z"/>
<path d="M60 560 l0 -510 510 0 510 0 0 510 0 510 -510 0 -510 0 0 -510z m270
5 l0 -426 -125 108 -124 108 34 34 34 34 45 -37 46 -37 0 314 c0 172 3 317 7
320 3 4 24 7 45 7 l38 0 0 -425z m417 213 l-218 -211 213 -214 213 -213 -70 0
-70 1 -212 210 c-117 115 -213 212 -213 214 0 3 73 76 163 164 l162 160 -167
1 -168 0 0 50 0 50 293 0 292 -1 -218 -211z m313 27 l0 -35 -52 0 -53 0 -102
-102 -103 -103 102 -102 103 -103 52 0 53 0 0 -35 0 -35 -87 0 -88 0 -137 137
-138 138 137 137 138 138 87 0 88 0 0 -35z"/>
<path d="M1500 1026 c-157 -35 -179 -77 -180 -343 l0 -183 65 0 65 0 0 115 0
115 195 0 195 0 0 40 0 40 -200 0 -199 0 5 33 c8 44 34 79 75 99 28 15 61 18
177 18 l142 0 0 40 0 40 -142 -1 c-79 0 -168 -6 -198 -13z"/>
<path d="M3450 970 l0 -70 -35 0 c-33 0 -35 -2 -35 -35 0 -33 2 -35 34 -35
l34 0 4 -135 c3 -131 4 -135 31 -162 24 -24 36 -28 103 -31 l75 -4 -3 33 c-3
31 -7 34 -42 40 -59 9 -66 27 -66 151 l0 108 55 0 55 0 0 35 0 35 -55 0 -55 0
0 70 0 70 -50 0 -50 0 0 -70z"/>
<path d="M4542 995 c-18 -25 -32 -48 -32 -50 0 -3 15 -5 34 -5 28 0 45 10 88
50 l53 49 -56 1 c-54 0 -56 -1 -87 -45z"/>
<path d="M5540 844 l0 -196 -34 -34 -34 -34 -126 0 -126 0 0 -40 0 -40 130 0
c160 0 220 12 267 53 58 51 63 73 63 292 l0 195 -70 0 -70 0 0 -196z"/>
<path d="M5780 770 l0 -270 60 0 59 0 3 108 3 107 80 0 80 0 74 -107 75 -108
74 0 73 0 -48 68 c-26 37 -60 85 -75 106 -33 45 -35 56 -10 56 54 0 122 78
122 140 0 49 -38 120 -79 147 -33 22 -42 23 -262 23 l-229 0 0 -270z m364 176
c41 -17 60 -61 42 -97 -21 -43 -70 -59 -183 -59 l-103 0 0 85 0 85 105 0 c68
0 118 -5 139 -14z"/>
<path d="M6546 1025 c-61 -21 -88 -47 -121 -110 -27 -53 -30 -68 -30 -149 1
-105 20 -160 75 -214 46 -44 83 -52 248 -52 l142 0 0 45 0 45 -133 0 c-132 0
-133 0 -159 28 -36 37 -48 73 -48 144 0 76 16 131 47 160 23 21 35 23 159 26
l134 4 0 44 0 44 -137 0 c-92 -1 -151 -6 -177 -15z"/>
<path d="M2044 889 c-17 -5 -50 -29 -72 -53 -80 -86 -81 -198 -4 -279 47 -50
71 -57 197 -57 l115 0 0 29 0 29 -101 4 c-96 3 -102 4 -125 31 -13 15 -24 37
-24 48 0 18 8 19 125 19 l125 0 0 35 0 35 -125 0 c-81 0 -125 4 -125 10 0 6 7
24 15 40 19 36 63 50 163 50 l72 0 0 35 0 35 -102 -1 c-57 0 -117 -5 -134 -10z"/>
<path d="M2374 887 c-2 -7 -3 -96 -2 -197 l3 -185 48 -3 47 -3 0 160 0 161 65
0 65 0 0 40 c0 38 -2 40 -29 40 -17 0 -42 -11 -59 -25 -17 -14 -33 -25 -36
-25 -3 0 -6 11 -6 25 0 23 -4 25 -45 25 -28 0 -48 -5 -51 -13z"/>
<path d="M2680 701 l0 -201 45 0 45 0 0 160 0 160 65 0 65 0 0 40 c0 38 -2 40
-29 40 -17 0 -42 -11 -60 -25 l-30 -26 -3 23 c-3 20 -10 23 -50 26 l-48 3 0
-200z"/>
<path d="M3099 890 c-47 -14 -89 -53 -116 -107 -34 -71 -30 -145 13 -205 47
-66 80 -78 216 -78 l118 0 0 30 0 30 -84 0 c-119 0 -165 22 -166 78 0 22 2 22
126 22 l125 0 -3 33 -3 32 -122 3 c-131 3 -138 6 -112 54 17 32 71 48 159 48
l81 0 -3 33 -3 32 -100 2 c-55 1 -112 -2 -126 -7z"/>
<path d="M3859 890 c-47 -14 -89 -53 -116 -107 -35 -72 -30 -145 14 -205 48
-67 79 -78 215 -78 l118 0 0 30 0 30 -84 0 c-119 0 -165 22 -166 78 0 22 2 22
126 22 l125 0 -3 33 -3 32 -122 3 c-131 3 -138 6 -112 54 17 32 71 48 159 48
l81 0 -3 33 -3 32 -100 2 c-55 1 -112 -2 -126 -7z"/>
<path d="M4180 700 l0 -200 50 0 50 0 0 160 0 160 65 0 65 0 0 40 c0 38 -2 40
-29 40 -17 0 -42 -11 -59 -25 -17 -14 -33 -25 -36 -25 -3 0 -6 11 -6 25 0 23
-3 25 -50 25 l-50 0 0 -200z"/>
<path d="M4480 700 l0 -200 50 0 50 0 0 200 0 200 -50 0 -50 0 0 -200z"/>
<path d="M4697 893 c-4 -3 -7 -21 -7 -40 l0 -33 125 0 c112 0 127 -2 145 -20
11 -11 20 -31 20 -45 l0 -25 -121 0 -121 0 -34 -34 c-48 -48 -50 -113 -3 -161
l29 -30 176 -3 175 -3 -3 160 -3 161 -31 31 c-17 16 -48 34 -70 39 -45 11
-267 13 -277 3z m283 -273 l0 -50 -87 0 c-91 0 -123 13 -123 50 0 36 32 47
138 49 l72 1 0 -50z"/>
<path d="M5243 386 c-24 -21 -28 -32 -28 -76 0 -42 4 -55 24 -71 30 -24 131
-28 131 -4 0 11 -12 15 -50 15 -53 0 -70 15 -70 62 0 44 27 68 76 68 32 0 44
4 44 15 0 27 -93 20 -127 -9z"/>
<path d="M5420 395 c-20 -24 -5 -28 21 -6 19 16 20 20 8 21 -9 0 -22 -7 -29
-15z"/>
<path d="M5750 335 c0 -97 15 -115 95 -115 30 0 55 5 55 10 0 6 -18 10 -39 10
-58 0 -71 18 -71 101 0 62 -2 69 -20 69 -18 0 -20 -7 -20 -75z"/>
<path d="M5940 395 c0 -8 7 -15 15 -15 8 0 15 7 15 15 0 8 -7 15 -15 15 -8 0
-15 -7 -15 -15z"/>
<path d="M6240 395 c0 -8 7 -15 15 -15 8 0 15 7 15 15 0 8 -7 15 -15 15 -8 0
-15 -7 -15 -15z"/>
<path d="M6320 385 c0 -16 -6 -25 -15 -25 -19 0 -19 -17 -1 -27 9 -5 16 -28
18 -58 3 -46 5 -50 31 -53 29 -4 37 12 12 22 -21 7 -21 86 -1 86 24 0 30 21 7
27 -14 3 -21 13 -21 29 0 15 -6 24 -15 24 -9 0 -15 -9 -15 -25z"/>
<path d="M6690 386 c0 -20 -6 -24 -42 -29 -23 -3 -48 -14 -55 -23 -18 -24 -16
-65 3 -92 12 -18 25 -22 70 -22 l54 0 0 95 c0 78 -3 95 -15 95 -9 0 -15 -9
-15 -24z m0 -101 c0 -41 -2 -45 -24 -45 -25 0 -56 23 -56 41 0 27 22 49 50 49
29 0 30 -2 30 -45z"/>
<path d="M5400 290 c0 -56 3 -70 15 -70 12 0 15 14 15 70 0 56 -3 70 -15 70
-12 0 -15 -14 -15 -70z"/>
<path d="M5470 347 c0 -12 12 -17 47 -19 59 -4 72 -28 15 -28 -58 0 -91 -37
-60 -68 7 -7 38 -12 70 -12 l58 0 0 53 c0 28 -4 58 -9 66 -5 8 -32 16 -65 19
-46 4 -56 2 -56 -11z m100 -87 c0 -16 -7 -20 -35 -20 -22 0 -35 5 -35 13 0 20
10 27 42 27 21 0 28 -5 28 -20z"/>
<path d="M5940 291 c0 -57 3 -71 15 -71 13 0 15 12 13 67 -2 42 -8 68 -15 71
-10 3 -13 -15 -13 -67z"/>
<path d="M6000 290 c0 -56 3 -70 15 -70 12 0 15 13 15 55 0 54 0 55 30 55 30
0 30 -1 30 -55 0 -42 3 -55 15 -55 12 0 15 13 15 56 0 52 1 55 23 52 19 -3 22
-10 25 -55 2 -38 7 -53 18 -53 11 0 14 14 14 60 0 74 -9 80 -119 80 l-81 0 0
-70z"/>
<path d="M6240 290 c0 -56 3 -70 15 -70 12 0 15 14 15 70 0 56 -3 70 -15 70
-12 0 -15 -14 -15 -70z"/>
<path d="M6420 346 c0 -11 14 -16 47 -18 63 -4 69 -26 7 -30 -54 -3 -77 -26
-58 -55 8 -13 27 -19 73 -21 l61 -3 0 55 c0 45 -4 58 -22 70 -29 21 -108 22
-108 2z m98 -88 c3 -14 -4 -18 -32 -18 -36 0 -52 12 -41 31 11 17 69 6 73 -13z"/>
<path d="M6760 347 c0 -12 12 -17 47 -19 59 -4 72 -28 15 -28 -58 0 -91 -37
-60 -68 7 -7 38 -12 70 -12 l58 0 0 53 c0 28 -4 58 -9 66 -5 8 -32 16 -65 19
-46 4 -56 2 -56 -11z m100 -87 c0 -16 -7 -20 -35 -20 -22 0 -35 5 -35 13 0 20
10 27 42 27 21 0 28 -5 28 -20z"/>
<path d="M2253 313 c521 -2 1373 -2 1895 0 521 1 94 2 -948 2 -1042 0 -1469
-1 -947 -2z"/>
</g>
</svg>
